<?xml version="1.0" encoding="utf-8"?>
<!-- Generator: Adobe Illustrator 23.0.3, SVG Export Plug-In . SVG Version: 6.00 Build 0)  -->
<svg version="1.1" id="Capa_1" xmlns="http://www.w3.org/2000/svg" xmlns:xlink="http://www.w3.org/1999/xlink" x="0px" y="0px"
	 viewBox="0 0 1200 1200" enable-background="new 0 0 1200 1200" xml:space="preserve">
<g>
	<path fill="#293160" d="M815.592,1098.717c1.316,13.084-2.99,26.183-11.811,35.938c-8.822,9.752-21.423,15.345-34.573,15.345
		H430.792c-13.15,0-25.753-5.594-34.573-15.345c-8.823-9.755-13.128-22.851-11.811-35.938l64.322-639.808
		c-20.034-3.254-35.393-20.627-35.393-41.564c0-21.146,15.662-38.653,35.984-41.656v-95.285
		c-20.322-3.005-35.984-20.511-35.984-41.655c0-21.195,15.736-38.737,36.129-41.678C452.476,115.467,519.76,50,602.085,50
		s149.609,65.467,152.619,147.07c20.393,2.942,36.129,20.483,36.129,41.678c0,21.144-15.662,38.65-35.984,41.655v95.285
		c20.322,3.003,35.984,20.511,35.984,41.656c0,22.355-17.502,40.649-39.517,42.026L815.592,1098.717z"/>
	<path fill="#FFDDB8" d="M455.497,447.152c-16.437,0-29.809-13.37-29.809-29.807s13.372-29.81,29.809-29.81h293.176
		c16.437,0,29.809,13.373,29.809,29.81s-13.372,29.807-29.809,29.807H455.497z M748.673,268.556
		c16.437,0,29.809-13.37,29.809-29.807s-13.372-29.81-29.809-29.81H455.497c-16.437,0-29.809,13.373-29.809,29.81
		s13.372,29.807,29.809,29.807H748.673z M784.846,916.355H415.154l28.273-281.229h313.147L784.846,916.355z"/>
	<path fill="#FFFFFF" d="M461.673,375.183v-94.277h37.377v94.277H461.673z M563.624,375.183v-94.277h-52.222v94.277H563.624z
		 M742.497,375.183v-94.277H705.12v94.277H742.497z M628.196,375.183v-94.277h-52.221v94.277H628.196z M692.769,375.183v-94.277
		h-52.222v94.277H692.769z"/>
	<path fill="#D94C73" d="M755.332,622.775H444.668l16.414-163.272h277.835L755.332,622.775z M602.085,62.351
		c-75.353,0-137.009,59.67-140.255,134.237h280.511C739.095,122.021,677.438,62.351,602.085,62.351z M786.088,928.706H413.912
		l-17.216,171.248c-0.966,9.619,2.198,19.247,8.683,26.415s15.748,11.281,25.414,11.281h338.416c9.666,0,18.929-4.113,25.414-11.281
		c6.485-7.171,9.649-16.799,8.683-26.415L786.088,928.706z"/>
</g>
</svg>
